<svg width="371" height="55" viewBox="0 0 371 55" fill="none" xmlns="http://www.w3.org/2000/svg">
<mask id="path-1-outside-1_28_17" maskUnits="userSpaceOnUse" x="0.984375" y="0.294922" width="370" height="55" fill="black">
<rect fill="white" x="0.984375" y="0.294922" width="370" height="55"/>
<path d="M39.96 17.4299C40.18 17.9799 40.125 18.5299 39.905 18.9699C39.52 19.6849 38.75 20.2899 38.035 20.7299C37.045 18.7499 35.945 16.5499 34.57 14.5699L37.155 12.8099C38.2 14.2399 39.3 15.8899 39.96 17.4299ZM35.285 19.9599C35.505 20.4549 35.505 21.0049 35.23 21.4449C34.79 22.2149 33.91 22.8749 33.195 23.0949C32.425 20.8949 31.16 18.8599 29.895 16.8799L32.48 15.2849C33.525 16.7699 34.515 18.3099 35.285 19.9599ZM32.425 14.5699C23.185 14.7899 14 15.3399 5.36501 17.1549C5.20001 16.2749 5.31001 15.0649 5.80501 14.1849C6.08001 13.6899 6.52001 13.3049 7.07001 13.1949C13.945 11.7099 24.01 11.2699 32.425 10.9399V14.5699ZM38.805 39.4849C38.86 40.5299 38.695 41.8499 38.145 42.6749C37.76 43.2799 37.155 43.7199 36.11 43.9399C27.2 45.7549 15.485 46.5799 6.96001 43.8849C5.20001 43.3349 4.04501 42.0149 3.44001 40.6949C2.89001 39.4299 2.89001 38.1649 3.16501 36.6799C3.71501 33.4899 5.42001 30.6849 7.45501 28.0999L10.975 29.9149C9.27001 32.3349 7.45501 34.7549 7.01501 37.6699C6.85001 38.7699 7.67501 39.9799 8.72001 40.3099C17.135 43.1699 30.005 41.4649 38.805 39.4849Z"/>
<path d="M97.985 46.7449C98.425 47.9549 97.82 48.9999 97.05 49.8249C96.5 50.3749 95.84 50.9249 95.235 51.3649C91.99 40.4199 85.17 26.3949 80.825 18.0899C81.54 17.7049 82.86 16.9349 83.74 16.4399C85.17 18.8599 87.59 23.6449 88.745 26.0649C90.78 23.1499 92.87 20.7299 94.905 18.4199C95.895 19.1349 96.94 20.0149 97.875 20.8949C95.125 23.4799 92.705 26.6149 90.45 29.6399C92.925 34.4249 95.95 41.2449 97.985 46.7449ZM98.205 11.0499C98.205 11.9849 98.205 13.6899 98.15 14.6799C92.925 14.6249 87.315 14.6799 81.98 14.9549C80.055 16.9899 77.305 20.0699 75.765 21.8299C75.16 28.7049 74.5 37.6149 74.445 44.8199C76.59 43.7199 81.1 42.0149 84.4 40.9149C84.785 41.8499 85.115 43.0599 85.445 44.2699C81.485 45.5899 74.335 48.6699 70.65 50.4849C70.485 44.7099 71.255 32.6649 71.75 27.1099C68.725 30.7399 66.03 34.6999 63.665 38.5499C62.95 37.8899 62.18 37.0649 61.795 36.2949C61.41 35.4699 61.355 34.5899 62.015 33.6549C66.47 27.2749 71.42 21.2799 76.92 15.3399C72.19 15.7249 67.24 16.2749 62.675 17.4299C62.785 16.6049 62.895 15.6699 63.225 14.7899C63.555 14.0199 64.105 13.3049 65.15 13.1399C69.77 12.4249 75.765 11.8199 80.44 11.4349C79.615 10.0599 77.91 7.58492 76.59 6.15492C77.415 5.65992 78.845 4.88992 79.835 4.33992C81.1 5.49492 82.915 7.47492 83.685 9.12492C84.07 9.94992 83.96 10.5549 83.685 11.2149C88.8 11.0499 93.64 10.9949 98.205 11.0499ZM67.185 5.16492C64.325 8.51992 60.915 13.1399 58.055 17.3199C58.715 17.2649 59.485 17.2099 60.2 17.1549C59.54 27.5499 58.99 39.7599 59.705 51.0899C58.88 51.0899 56.79 51.1999 55.855 51.2549C55.415 41.8499 55.745 27.4949 56.35 19.9049C55.03 21.8849 53.71 24.1399 52.555 26.1749C52.06 25.5149 51.4 24.6349 51.07 23.7549C50.74 22.9299 50.63 22.1049 51.125 21.2799C54.755 15.0649 59.265 9.12492 64.05 3.29492C64.93 3.84492 66.415 4.72492 67.185 5.16492Z"/>
<path d="M151.335 51.1999C148.31 47.6799 145.835 44.9299 142.645 42.3449L144.955 40.1999C142.645 40.3099 140.555 40.5299 138.245 40.8599L140.61 43.0049C136.76 45.6449 133.515 48.1749 130.16 51.1999C129.665 50.7049 129.17 50.0999 128.95 49.4399C128.675 48.7249 128.62 47.9549 129.28 47.4049C131.59 45.4249 135.055 42.6749 137.53 40.9699C135.935 41.2449 134.285 41.5749 132.415 41.9599C132.36 33.8749 132.635 25.2949 133.405 17.2099C132.855 17.3749 132.25 17.5949 131.7 17.8149C131.7 16.9349 131.81 16.0549 132.03 15.3949C132.25 14.6249 132.635 14.1299 133.24 13.9099C134.725 13.4149 136.485 13.0299 138.3 12.7549C138.685 11.2699 139.235 9.45492 139.675 7.96992C136.925 8.18992 134.175 8.57492 131.315 9.06992C131.37 8.40992 131.425 7.63992 131.645 6.97992C131.865 6.31992 132.305 5.71492 133.13 5.60492C139.73 4.72492 146.22 4.22992 152.875 4.33992V7.52992C149.575 7.52992 146.495 7.52992 143.47 7.69492C142.975 9.17992 142.48 10.9399 142.15 12.3699C143.36 12.3149 144.46 12.3699 145.505 12.4249C147.045 12.5349 148.365 13.0849 149.19 14.1849C150.18 15.5049 150.675 17.3199 150.785 19.2999C151.17 26.0099 151.5 33.1049 151.61 40.2549C149.41 40.1999 147.485 40.1449 145.725 40.1999C148.035 42.0699 150.73 44.7649 152.545 46.9099C153.205 47.7349 153.15 48.5049 152.765 49.2749C152.435 49.9899 151.94 50.6499 151.335 51.1999ZM147.21 20.2899C147.1 19.0799 146.935 17.9799 146.825 17.0449C146.715 16.2749 145.945 15.6699 145.175 15.6149C142.425 15.3949 139.675 15.6699 136.98 16.2749C136.87 17.6499 136.76 19.2999 136.65 21.0049C140.28 20.5649 144.13 20.2899 147.21 20.2899ZM147.76 28.4299C147.705 26.7799 147.595 25.1299 147.485 23.5349C144.46 23.4249 140.17 23.5899 136.485 24.1399C136.375 25.8449 136.265 27.5499 136.21 29.1999C140.06 28.7049 144.57 28.3749 147.76 28.4299ZM147.925 37.0099C147.98 35.5799 147.925 33.7099 147.87 31.7299C144.68 31.6199 140.06 31.7849 136.1 32.3349C136.045 34.6449 135.99 36.6249 136.045 37.9999C139.84 37.4499 143.91 37.0649 147.925 37.0099ZM129.83 42.2349C129.555 42.8949 129.005 43.6649 128.235 44.4349C126.475 41.9049 122.955 37.7249 120.425 35.1399C120.315 40.4749 120.26 45.8099 120.315 51.1449H116.74C116.575 46.3599 116.575 39.7599 116.74 34.6999C113.88 39.0999 111.295 43.7749 109.04 48.6699C108.105 48.0649 107.5 47.2949 107.115 46.5799C106.675 45.6449 106.73 44.7649 107.06 44.1049C108.93 40.4749 112.34 34.9749 115.365 30.7949C112.725 31.1249 110.195 31.4549 107.995 31.8949C108.105 28.2099 108.545 24.6349 109.04 21.1149C108.765 21.1149 108.325 21.2249 107.83 21.3899C107.885 20.4549 107.94 19.6299 108.215 18.9699C108.49 18.3649 108.93 17.9249 109.7 17.7049C111.625 17.1549 114.485 16.6599 117.345 16.3299C117.455 15.0099 117.51 13.6349 117.62 12.3699C114.265 12.6999 110.91 13.1399 107.28 13.6899C107.335 12.9199 107.445 11.9849 107.775 11.2699C108.105 10.6649 108.545 10.1699 109.26 10.0599C112.34 9.61992 115.09 9.28992 117.895 9.01492C118.06 7.25492 118.28 5.65992 118.445 4.39492L122.02 4.33992C121.91 5.82492 121.8 7.25492 121.69 8.73992C124.165 8.57492 126.64 8.46492 129.39 8.40992L129.445 11.8199C126.64 11.8199 124 11.9299 121.415 12.0949C121.305 13.4149 121.25 14.6799 121.195 15.9999C122.24 15.9449 123.23 15.9999 124.055 16.0549C125.43 16.1649 126.42 16.6049 127.08 17.3199C127.905 18.1449 128.29 19.4099 128.565 20.8399C128.95 22.9849 129.225 27.4949 129.28 30.0799C126.75 29.9699 123.725 30.0799 120.535 30.2999C120.48 31.2899 120.425 32.2799 120.425 33.2699L122.075 32.1149C125.045 34.7549 127.685 37.3949 129.775 39.9249C130.215 40.4749 130.215 41.2999 129.83 42.2349ZM125.76 26.9449C125.65 25.2399 125.43 22.3249 125.1 20.8399C124.88 19.9599 124.165 19.4649 123.34 19.2999C122.9 19.2449 122.02 19.2449 120.975 19.2999C120.81 21.8849 120.755 24.5249 120.645 27.1099C122.24 26.9999 123.89 26.9449 125.76 26.9449ZM117.18 19.6849C115.255 19.9049 113.44 20.1799 112.56 20.3999C112.23 22.9299 111.955 25.4049 111.9 28.0449C113.66 27.7699 115.255 27.6049 116.795 27.4399C116.85 25.2949 117.015 22.5449 117.18 19.6849Z"/>
<path d="M202.43 13.8549C195.005 13.9649 187.415 14.6799 180.65 16.9349C180.54 15.8349 180.595 14.7349 181.035 13.8549C181.42 13.1399 182.025 12.6449 182.96 12.4249C189.12 11.0499 195.775 10.5549 202.265 10.2249L202.43 13.8549ZM204.795 40.1999C204.85 41.4099 204.465 42.5649 203.695 43.3899C203.145 43.9949 202.43 44.3799 201.55 44.5449C195.72 45.6449 187.47 46.0299 182.41 44.4349C180.98 43.9949 179.825 43.1699 179.165 42.0149C178.505 40.9149 178.23 39.5399 178.505 38.1099C178.78 36.6249 179.55 35.1949 180.21 33.8749C181.365 34.2599 182.465 34.8099 183.565 35.3049C183.235 36.1849 182.52 37.1749 182.245 38.1649C181.97 38.9899 182.025 39.6499 182.3 40.0899C182.63 40.6399 183.29 41.0249 184.17 41.2999C189.835 43.1699 199.68 41.4649 204.795 40.1999ZM177.24 34.5349C176.085 37.3949 174.325 42.9499 173.17 46.9649L169.1 47.5699C164.37 35.1399 165.8 19.7949 168.22 6.86992L172.015 6.75992C169.705 17.7049 168.22 30.0799 170.97 41.2449C171.85 38.5499 172.895 35.6899 173.94 32.9949L177.24 34.5349Z"/>
<path d="M258.035 27.9349C257.76 31.3449 256.44 34.6999 254.24 37.1749C252.04 39.6499 249.455 41.4099 246.595 42.5099C243.735 43.6649 240.6 44.1599 237.3 44.2149C236.64 44.2149 236.09 43.9399 235.65 43.4999C234.825 42.7299 234.275 41.4649 233.945 40.3649C237.63 40.6399 241.37 40.4199 244.725 39.2649C247.695 38.2199 250.335 36.4599 252.15 33.5999C253.36 31.6749 254.35 29.0349 254.515 26.4499C254.68 23.9199 254.02 21.7749 252.205 20.0149C250.445 18.3649 248.245 17.8149 245.715 17.7049C237.795 17.3749 228.335 19.6849 220.305 22.5999C220.14 21.8299 220.03 20.6199 220.36 19.6849C220.58 19.0799 220.965 18.5849 221.625 18.3649C229.765 15.8899 238.29 13.7999 247.42 14.3499C250.555 14.5149 253.8 15.9449 255.78 18.4199C257.76 20.8949 258.31 24.8549 258.035 27.9349Z"/>
<path d="M312.265 32.2249C312.43 33.1049 312.375 33.8199 311.825 34.5349C311.275 35.2499 310.065 36.0199 308.91 36.3499C307.37 27.4399 304.51 19.1349 300.715 11.1599L304.18 9.72992C307.7 16.8249 310.615 24.4149 312.265 32.2249ZM297.14 36.5149C296.315 39.3749 294.39 43.3349 291.915 45.8099C290.54 47.2399 289.11 47.6799 287.735 47.4599C286.195 47.1849 284.71 46.0849 283.39 44.5449C275.525 35.2499 276.405 18.5299 278 8.46492L281.74 8.29992C280.42 19.6849 279.155 33.1049 287.075 42.8399C287.68 43.6099 288.89 43.7199 289.495 42.8399C291.86 39.3749 293.345 36.0199 294.555 32.5549C295.435 32.8849 296.37 33.5999 296.865 34.5349C297.195 35.1399 297.305 35.8549 297.14 36.5149Z"/>
<path d="M368.365 13.4699C361.435 13.8549 353.845 19.0249 349.775 24.5249C347.74 27.2749 346.805 30.2449 347.135 33.0499C347.465 35.5799 348.785 37.9449 351.425 39.8149C354.175 41.7949 359.235 43.6649 363.47 43.9399C362.975 45.0949 362.26 45.9749 361.325 46.4699C360.28 47.0749 358.96 47.1849 357.585 46.7999C354.23 45.8099 350.985 44.2699 348.345 42.0149C345.265 39.3749 343.67 36.2949 343.395 33.0499C343.12 29.8049 344.22 26.1199 346.585 22.7649C349.005 19.2999 352.415 16.4399 355.99 14.2949C346.915 15.1749 338.17 16.8799 330.8 19.0799C330.8 18.1449 330.91 17.0999 331.35 16.2199C331.68 15.5049 332.285 14.9549 333.165 14.7349C344.495 12.0949 356.265 10.5549 368.365 10.0049V13.4699Z"/>
</mask>
<path d="M39.96 17.4299C40.18 17.9799 40.125 18.5299 39.905 18.9699C39.52 19.6849 38.75 20.2899 38.035 20.7299C37.045 18.7499 35.945 16.5499 34.57 14.5699L37.155 12.8099C38.2 14.2399 39.3 15.8899 39.96 17.4299ZM35.285 19.9599C35.505 20.4549 35.505 21.0049 35.23 21.4449C34.79 22.2149 33.91 22.8749 33.195 23.0949C32.425 20.8949 31.16 18.8599 29.895 16.8799L32.48 15.2849C33.525 16.7699 34.515 18.3099 35.285 19.9599ZM32.425 14.5699C23.185 14.7899 14 15.3399 5.36501 17.1549C5.20001 16.2749 5.31001 15.0649 5.80501 14.1849C6.08001 13.6899 6.52001 13.3049 7.07001 13.1949C13.945 11.7099 24.01 11.2699 32.425 10.9399V14.5699ZM38.805 39.4849C38.86 40.5299 38.695 41.8499 38.145 42.6749C37.76 43.2799 37.155 43.7199 36.11 43.9399C27.2 45.7549 15.485 46.5799 6.96001 43.8849C5.20001 43.3349 4.04501 42.0149 3.44001 40.6949C2.89001 39.4299 2.89001 38.1649 3.16501 36.6799C3.71501 33.4899 5.42001 30.6849 7.45501 28.0999L10.975 29.9149C9.27001 32.3349 7.45501 34.7549 7.01501 37.6699C6.85001 38.7699 7.67501 39.9799 8.72001 40.3099C17.135 43.1699 30.005 41.4649 38.805 39.4849Z" fill="white"/>
<path d="M97.985 46.7449C98.425 47.9549 97.82 48.9999 97.05 49.8249C96.5 50.3749 95.84 50.9249 95.235 51.3649C91.99 40.4199 85.17 26.3949 80.825 18.0899C81.54 17.7049 82.86 16.9349 83.74 16.4399C85.17 18.8599 87.59 23.6449 88.745 26.0649C90.78 23.1499 92.87 20.7299 94.905 18.4199C95.895 19.1349 96.94 20.0149 97.875 20.8949C95.125 23.4799 92.705 26.6149 90.45 29.6399C92.925 34.4249 95.95 41.2449 97.985 46.7449ZM98.205 11.0499C98.205 11.9849 98.205 13.6899 98.15 14.6799C92.925 14.6249 87.315 14.6799 81.98 14.9549C80.055 16.9899 77.305 20.0699 75.765 21.8299C75.16 28.7049 74.5 37.6149 74.445 44.8199C76.59 43.7199 81.1 42.0149 84.4 40.9149C84.785 41.8499 85.115 43.0599 85.445 44.2699C81.485 45.5899 74.335 48.6699 70.65 50.4849C70.485 44.7099 71.255 32.6649 71.75 27.1099C68.725 30.7399 66.03 34.6999 63.665 38.5499C62.95 37.8899 62.18 37.0649 61.795 36.2949C61.41 35.4699 61.355 34.5899 62.015 33.6549C66.47 27.2749 71.42 21.2799 76.92 15.3399C72.19 15.7249 67.24 16.2749 62.675 17.4299C62.785 16.6049 62.895 15.6699 63.225 14.7899C63.555 14.0199 64.105 13.3049 65.15 13.1399C69.77 12.4249 75.765 11.8199 80.44 11.4349C79.615 10.0599 77.91 7.58492 76.59 6.15492C77.415 5.65992 78.845 4.88992 79.835 4.33992C81.1 5.49492 82.915 7.47492 83.685 9.12492C84.07 9.94992 83.96 10.5549 83.685 11.2149C88.8 11.0499 93.64 10.9949 98.205 11.0499ZM67.185 5.16492C64.325 8.51992 60.915 13.1399 58.055 17.3199C58.715 17.2649 59.485 17.2099 60.2 17.1549C59.54 27.5499 58.99 39.7599 59.705 51.0899C58.88 51.0899 56.79 51.1999 55.855 51.2549C55.415 41.8499 55.745 27.4949 56.35 19.9049C55.03 21.8849 53.71 24.1399 52.555 26.1749C52.06 25.5149 51.4 24.6349 51.07 23.7549C50.74 22.9299 50.63 22.1049 51.125 21.2799C54.755 15.0649 59.265 9.12492 64.05 3.29492C64.93 3.84492 66.415 4.72492 67.185 5.16492Z" fill="white"/>
<path d="M151.335 51.1999C148.31 47.6799 145.835 44.9299 142.645 42.3449L144.955 40.1999C142.645 40.3099 140.555 40.5299 138.245 40.8599L140.61 43.0049C136.76 45.6449 133.515 48.1749 130.16 51.1999C129.665 50.7049 129.17 50.0999 128.95 49.4399C128.675 48.7249 128.62 47.9549 129.28 47.4049C131.59 45.4249 135.055 42.6749 137.53 40.9699C135.935 41.2449 134.285 41.5749 132.415 41.9599C132.36 33.8749 132.635 25.2949 133.405 17.2099C132.855 17.3749 132.25 17.5949 131.7 17.8149C131.7 16.9349 131.81 16.0549 132.03 15.3949C132.25 14.6249 132.635 14.1299 133.24 13.9099C134.725 13.4149 136.485 13.0299 138.3 12.7549C138.685 11.2699 139.235 9.45492 139.675 7.96992C136.925 8.18992 134.175 8.57492 131.315 9.06992C131.37 8.40992 131.425 7.63992 131.645 6.97992C131.865 6.31992 132.305 5.71492 133.13 5.60492C139.73 4.72492 146.22 4.22992 152.875 4.33992V7.52992C149.575 7.52992 146.495 7.52992 143.47 7.69492C142.975 9.17992 142.48 10.9399 142.15 12.3699C143.36 12.3149 144.46 12.3699 145.505 12.4249C147.045 12.5349 148.365 13.0849 149.19 14.1849C150.18 15.5049 150.675 17.3199 150.785 19.2999C151.17 26.0099 151.5 33.1049 151.61 40.2549C149.41 40.1999 147.485 40.1449 145.725 40.1999C148.035 42.0699 150.73 44.7649 152.545 46.9099C153.205 47.7349 153.15 48.5049 152.765 49.2749C152.435 49.9899 151.94 50.6499 151.335 51.1999ZM147.21 20.2899C147.1 19.0799 146.935 17.9799 146.825 17.0449C146.715 16.2749 145.945 15.6699 145.175 15.6149C142.425 15.3949 139.675 15.6699 136.98 16.2749C136.87 17.6499 136.76 19.2999 136.65 21.0049C140.28 20.5649 144.13 20.2899 147.21 20.2899ZM147.76 28.4299C147.705 26.7799 147.595 25.1299 147.485 23.5349C144.46 23.4249 140.17 23.5899 136.485 24.1399C136.375 25.8449 136.265 27.5499 136.21 29.1999C140.06 28.7049 144.57 28.3749 147.76 28.4299ZM147.925 37.0099C147.98 35.5799 147.925 33.7099 147.87 31.7299C144.68 31.6199 140.06 31.7849 136.1 32.3349C136.045 34.6449 135.99 36.6249 136.045 37.9999C139.84 37.4499 143.91 37.0649 147.925 37.0099ZM129.83 42.2349C129.555 42.8949 129.005 43.6649 128.235 44.4349C126.475 41.9049 122.955 37.7249 120.425 35.1399C120.315 40.4749 120.26 45.8099 120.315 51.1449H116.74C116.575 46.3599 116.575 39.7599 116.74 34.6999C113.88 39.0999 111.295 43.7749 109.04 48.6699C108.105 48.0649 107.5 47.2949 107.115 46.5799C106.675 45.6449 106.73 44.7649 107.06 44.1049C108.93 40.4749 112.34 34.9749 115.365 30.7949C112.725 31.1249 110.195 31.4549 107.995 31.8949C108.105 28.2099 108.545 24.6349 109.04 21.1149C108.765 21.1149 108.325 21.2249 107.83 21.3899C107.885 20.4549 107.94 19.6299 108.215 18.9699C108.49 18.3649 108.93 17.9249 109.7 17.7049C111.625 17.1549 114.485 16.6599 117.345 16.3299C117.455 15.0099 117.51 13.6349 117.62 12.3699C114.265 12.6999 110.91 13.1399 107.28 13.6899C107.335 12.9199 107.445 11.9849 107.775 11.2699C108.105 10.6649 108.545 10.1699 109.26 10.0599C112.34 9.61992 115.09 9.28992 117.895 9.01492C118.06 7.25492 118.28 5.65992 118.445 4.39492L122.02 4.33992C121.91 5.82492 121.8 7.25492 121.69 8.73992C124.165 8.57492 126.64 8.46492 129.39 8.40992L129.445 11.8199C126.64 11.8199 124 11.9299 121.415 12.0949C121.305 13.4149 121.25 14.6799 121.195 15.9999C122.24 15.9449 123.23 15.9999 124.055 16.0549C125.43 16.1649 126.42 16.6049 127.08 17.3199C127.905 18.1449 128.29 19.4099 128.565 20.8399C128.95 22.9849 129.225 27.4949 129.28 30.0799C126.75 29.9699 123.725 30.0799 120.535 30.2999C120.48 31.2899 120.425 32.2799 120.425 33.2699L122.075 32.1149C125.045 34.7549 127.685 37.3949 129.775 39.9249C130.215 40.4749 130.215 41.2999 129.83 42.2349ZM125.76 26.9449C125.65 25.2399 125.43 22.3249 125.1 20.8399C124.88 19.9599 124.165 19.4649 123.34 19.2999C122.9 19.2449 122.02 19.2449 120.975 19.2999C120.81 21.8849 120.755 24.5249 120.645 27.1099C122.24 26.9999 123.89 26.9449 125.76 26.9449ZM117.18 19.6849C115.255 19.9049 113.44 20.1799 112.56 20.3999C112.23 22.9299 111.955 25.4049 111.9 28.0449C113.66 27.7699 115.255 27.6049 116.795 27.4399C116.85 25.2949 117.015 22.5449 117.18 19.6849Z" fill="white"/>
<path d="M202.43 13.8549C195.005 13.9649 187.415 14.6799 180.65 16.9349C180.54 15.8349 180.595 14.7349 181.035 13.8549C181.42 13.1399 182.025 12.6449 182.96 12.4249C189.12 11.0499 195.775 10.5549 202.265 10.2249L202.43 13.8549ZM204.795 40.1999C204.85 41.4099 204.465 42.5649 203.695 43.3899C203.145 43.9949 202.43 44.3799 201.55 44.5449C195.72 45.6449 187.47 46.0299 182.41 44.4349C180.98 43.9949 179.825 43.1699 179.165 42.0149C178.505 40.9149 178.23 39.5399 178.505 38.1099C178.78 36.6249 179.55 35.1949 180.21 33.8749C181.365 34.2599 182.465 34.8099 183.565 35.3049C183.235 36.1849 182.52 37.1749 182.245 38.1649C181.97 38.9899 182.025 39.6499 182.3 40.0899C182.63 40.6399 183.29 41.0249 184.17 41.2999C189.835 43.1699 199.68 41.4649 204.795 40.1999ZM177.24 34.5349C176.085 37.3949 174.325 42.9499 173.17 46.9649L169.1 47.5699C164.37 35.1399 165.8 19.7949 168.22 6.86992L172.015 6.75992C169.705 17.7049 168.22 30.0799 170.97 41.2449C171.85 38.5499 172.895 35.6899 173.94 32.9949L177.24 34.5349Z" fill="white"/>
<path d="M258.035 27.9349C257.76 31.3449 256.44 34.6999 254.24 37.1749C252.04 39.6499 249.455 41.4099 246.595 42.5099C243.735 43.6649 240.6 44.1599 237.3 44.2149C236.64 44.2149 236.09 43.9399 235.65 43.4999C234.825 42.7299 234.275 41.4649 233.945 40.3649C237.63 40.6399 241.37 40.4199 244.725 39.2649C247.695 38.2199 250.335 36.4599 252.15 33.5999C253.36 31.6749 254.35 29.0349 254.515 26.4499C254.68 23.9199 254.02 21.7749 252.205 20.0149C250.445 18.3649 248.245 17.8149 245.715 17.7049C237.795 17.3749 228.335 19.6849 220.305 22.5999C220.14 21.8299 220.03 20.6199 220.36 19.6849C220.58 19.0799 220.965 18.5849 221.625 18.3649C229.765 15.8899 238.29 13.7999 247.42 14.3499C250.555 14.5149 253.8 15.9449 255.78 18.4199C257.76 20.8949 258.31 24.8549 258.035 27.9349Z" fill="white"/>
<path d="M312.265 32.2249C312.43 33.1049 312.375 33.8199 311.825 34.5349C311.275 35.2499 310.065 36.0199 308.91 36.3499C307.37 27.4399 304.51 19.1349 300.715 11.1599L304.18 9.72992C307.7 16.8249 310.615 24.4149 312.265 32.2249ZM297.14 36.5149C296.315 39.3749 294.39 43.3349 291.915 45.8099C290.54 47.2399 289.11 47.6799 287.735 47.4599C286.195 47.1849 284.71 46.0849 283.39 44.5449C275.525 35.2499 276.405 18.5299 278 8.46492L281.74 8.29992C280.42 19.6849 279.155 33.1049 287.075 42.8399C287.68 43.6099 288.89 43.7199 289.495 42.8399C291.86 39.3749 293.345 36.0199 294.555 32.5549C295.435 32.8849 296.37 33.5999 296.865 34.5349C297.195 35.1399 297.305 35.8549 297.14 36.5149Z" fill="white"/>
<path d="M368.365 13.4699C361.435 13.8549 353.845 19.0249 349.775 24.5249C347.74 27.2749 346.805 30.2449 347.135 33.0499C347.465 35.5799 348.785 37.9449 351.425 39.8149C354.175 41.7949 359.235 43.6649 363.47 43.9399C362.975 45.0949 362.26 45.9749 361.325 46.4699C360.28 47.0749 358.96 47.1849 357.585 46.7999C354.23 45.8099 350.985 44.2699 348.345 42.0149C345.265 39.3749 343.67 36.2949 343.395 33.0499C343.12 29.8049 344.22 26.1199 346.585 22.7649C349.005 19.2999 352.415 16.4399 355.99 14.2949C346.915 15.1749 338.17 16.8799 330.8 19.0799C330.8 18.1449 330.91 17.0999 331.35 16.2199C331.68 15.5049 332.285 14.9549 333.165 14.7349C344.495 12.0949 356.265 10.5549 368.365 10.0049V13.4699Z" fill="white"/>
<path d="M39.96 17.4299C40.18 17.9799 40.125 18.5299 39.905 18.9699C39.52 19.6849 38.75 20.2899 38.035 20.7299C37.045 18.7499 35.945 16.5499 34.57 14.5699L37.155 12.8099C38.2 14.2399 39.3 15.8899 39.96 17.4299ZM35.285 19.9599C35.505 20.4549 35.505 21.0049 35.23 21.4449C34.79 22.2149 33.91 22.8749 33.195 23.0949C32.425 20.8949 31.16 18.8599 29.895 16.8799L32.48 15.2849C33.525 16.7699 34.515 18.3099 35.285 19.9599ZM32.425 14.5699C23.185 14.7899 14 15.3399 5.36501 17.1549C5.20001 16.2749 5.31001 15.0649 5.80501 14.1849C6.08001 13.6899 6.52001 13.3049 7.07001 13.1949C13.945 11.7099 24.01 11.2699 32.425 10.9399V14.5699ZM38.805 39.4849C38.86 40.5299 38.695 41.8499 38.145 42.6749C37.76 43.2799 37.155 43.7199 36.11 43.9399C27.2 45.7549 15.485 46.5799 6.96001 43.8849C5.20001 43.3349 4.04501 42.0149 3.44001 40.6949C2.89001 39.4299 2.89001 38.1649 3.16501 36.6799C3.71501 33.4899 5.42001 30.6849 7.45501 28.0999L10.975 29.9149C9.27001 32.3349 7.45501 34.7549 7.01501 37.6699C6.85001 38.7699 7.67501 39.9799 8.72001 40.3099C17.135 43.1699 30.005 41.4649 38.805 39.4849Z" stroke="#8789A2" stroke-width="4" mask="url(#path-1-outside-1_28_17)"/>
<path d="M97.985 46.7449C98.425 47.9549 97.82 48.9999 97.05 49.8249C96.5 50.3749 95.84 50.9249 95.235 51.3649C91.99 40.4199 85.17 26.3949 80.825 18.0899C81.54 17.7049 82.86 16.9349 83.74 16.4399C85.17 18.8599 87.59 23.6449 88.745 26.0649C90.78 23.1499 92.87 20.7299 94.905 18.4199C95.895 19.1349 96.94 20.0149 97.875 20.8949C95.125 23.4799 92.705 26.6149 90.45 29.6399C92.925 34.4249 95.95 41.2449 97.985 46.7449ZM98.205 11.0499C98.205 11.9849 98.205 13.6899 98.15 14.6799C92.925 14.6249 87.315 14.6799 81.98 14.9549C80.055 16.9899 77.305 20.0699 75.765 21.8299C75.16 28.7049 74.5 37.6149 74.445 44.8199C76.59 43.7199 81.1 42.0149 84.4 40.9149C84.785 41.8499 85.115 43.0599 85.445 44.2699C81.485 45.5899 74.335 48.6699 70.65 50.4849C70.485 44.7099 71.255 32.6649 71.75 27.1099C68.725 30.7399 66.03 34.6999 63.665 38.5499C62.95 37.8899 62.18 37.0649 61.795 36.2949C61.41 35.4699 61.355 34.5899 62.015 33.6549C66.47 27.2749 71.42 21.2799 76.92 15.3399C72.19 15.7249 67.24 16.2749 62.675 17.4299C62.785 16.6049 62.895 15.6699 63.225 14.7899C63.555 14.0199 64.105 13.3049 65.15 13.1399C69.77 12.4249 75.765 11.8199 80.44 11.4349C79.615 10.0599 77.91 7.58492 76.59 6.15492C77.415 5.65992 78.845 4.88992 79.835 4.33992C81.1 5.49492 82.915 7.47492 83.685 9.12492C84.07 9.94992 83.96 10.5549 83.685 11.2149C88.8 11.0499 93.64 10.9949 98.205 11.0499ZM67.185 5.16492C64.325 8.51992 60.915 13.1399 58.055 17.3199C58.715 17.2649 59.485 17.2099 60.2 17.1549C59.54 27.5499 58.99 39.7599 59.705 51.0899C58.88 51.0899 56.79 51.1999 55.855 51.2549C55.415 41.8499 55.745 27.4949 56.35 19.9049C55.03 21.8849 53.71 24.1399 52.555 26.1749C52.06 25.5149 51.4 24.6349 51.07 23.7549C50.74 22.9299 50.63 22.1049 51.125 21.2799C54.755 15.0649 59.265 9.12492 64.05 3.29492C64.93 3.84492 66.415 4.72492 67.185 5.16492Z" stroke="#8789A2" stroke-width="4" mask="url(#path-1-outside-1_28_17)"/>
<path d="M151.335 51.1999C148.31 47.6799 145.835 44.9299 142.645 42.3449L144.955 40.1999C142.645 40.3099 140.555 40.5299 138.245 40.8599L140.61 43.0049C136.76 45.6449 133.515 48.1749 130.16 51.1999C129.665 50.7049 129.17 50.0999 128.95 49.4399C128.675 48.7249 128.62 47.9549 129.28 47.4049C131.59 45.4249 135.055 42.6749 137.53 40.9699C135.935 41.2449 134.285 41.5749 132.415 41.9599C132.36 33.8749 132.635 25.2949 133.405 17.2099C132.855 17.3749 132.25 17.5949 131.7 17.8149C131.7 16.9349 131.81 16.0549 132.03 15.3949C132.25 14.6249 132.635 14.1299 133.24 13.9099C134.725 13.4149 136.485 13.0299 138.3 12.7549C138.685 11.2699 139.235 9.45492 139.675 7.96992C136.925 8.18992 134.175 8.57492 131.315 9.06992C131.37 8.40992 131.425 7.63992 131.645 6.97992C131.865 6.31992 132.305 5.71492 133.13 5.60492C139.73 4.72492 146.22 4.22992 152.875 4.33992V7.52992C149.575 7.52992 146.495 7.52992 143.47 7.69492C142.975 9.17992 142.48 10.9399 142.15 12.3699C143.36 12.3149 144.46 12.3699 145.505 12.4249C147.045 12.5349 148.365 13.0849 149.19 14.1849C150.18 15.5049 150.675 17.3199 150.785 19.2999C151.17 26.0099 151.5 33.1049 151.61 40.2549C149.41 40.1999 147.485 40.1449 145.725 40.1999C148.035 42.0699 150.73 44.7649 152.545 46.9099C153.205 47.7349 153.15 48.5049 152.765 49.2749C152.435 49.9899 151.94 50.6499 151.335 51.1999ZM147.21 20.2899C147.1 19.0799 146.935 17.9799 146.825 17.0449C146.715 16.2749 145.945 15.6699 145.175 15.6149C142.425 15.3949 139.675 15.6699 136.98 16.2749C136.87 17.6499 136.76 19.2999 136.65 21.0049C140.28 20.5649 144.13 20.2899 147.21 20.2899ZM147.76 28.4299C147.705 26.7799 147.595 25.1299 147.485 23.5349C144.46 23.4249 140.17 23.5899 136.485 24.1399C136.375 25.8449 136.265 27.5499 136.21 29.1999C140.06 28.7049 144.57 28.3749 147.76 28.4299ZM147.925 37.0099C147.98 35.5799 147.925 33.7099 147.87 31.7299C144.68 31.6199 140.06 31.7849 136.1 32.3349C136.045 34.6449 135.99 36.6249 136.045 37.9999C139.84 37.4499 143.91 37.0649 147.925 37.0099ZM129.83 42.2349C129.555 42.8949 129.005 43.6649 128.235 44.4349C126.475 41.9049 122.955 37.7249 120.425 35.1399C120.315 40.4749 120.26 45.8099 120.315 51.1449H116.74C116.575 46.3599 116.575 39.7599 116.74 34.6999C113.88 39.0999 111.295 43.7749 109.04 48.6699C108.105 48.0649 107.5 47.2949 107.115 46.5799C106.675 45.6449 106.73 44.7649 107.06 44.1049C108.93 40.4749 112.34 34.9749 115.365 30.7949C112.725 31.1249 110.195 31.4549 107.995 31.8949C108.105 28.2099 108.545 24.6349 109.04 21.1149C108.765 21.1149 108.325 21.2249 107.83 21.3899C107.885 20.4549 107.94 19.6299 108.215 18.9699C108.49 18.3649 108.93 17.9249 109.7 17.7049C111.625 17.1549 114.485 16.6599 117.345 16.3299C117.455 15.0099 117.51 13.6349 117.62 12.3699C114.265 12.6999 110.91 13.1399 107.28 13.6899C107.335 12.9199 107.445 11.9849 107.775 11.2699C108.105 10.6649 108.545 10.1699 109.26 10.0599C112.34 9.61992 115.09 9.28992 117.895 9.01492C118.06 7.25492 118.28 5.65992 118.445 4.39492L122.02 4.33992C121.91 5.82492 121.8 7.25492 121.69 8.73992C124.165 8.57492 126.64 8.46492 129.39 8.40992L129.445 11.8199C126.64 11.8199 124 11.9299 121.415 12.0949C121.305 13.4149 121.25 14.6799 121.195 15.9999C122.24 15.9449 123.23 15.9999 124.055 16.0549C125.43 16.1649 126.42 16.6049 127.08 17.3199C127.905 18.1449 128.29 19.4099 128.565 20.8399C128.95 22.9849 129.225 27.4949 129.28 30.0799C126.75 29.9699 123.725 30.0799 120.535 30.2999C120.48 31.2899 120.425 32.2799 120.425 33.2699L122.075 32.1149C125.045 34.7549 127.685 37.3949 129.775 39.9249C130.215 40.4749 130.215 41.2999 129.83 42.2349ZM125.76 26.9449C125.65 25.2399 125.43 22.3249 125.1 20.8399C124.88 19.9599 124.165 19.4649 123.34 19.2999C122.9 19.2449 122.02 19.2449 120.975 19.2999C120.81 21.8849 120.755 24.5249 120.645 27.1099C122.24 26.9999 123.89 26.9449 125.76 26.9449ZM117.18 19.6849C115.255 19.9049 113.44 20.1799 112.56 20.3999C112.23 22.9299 111.955 25.4049 111.9 28.0449C113.66 27.7699 115.255 27.6049 116.795 27.4399C116.85 25.2949 117.015 22.5449 117.18 19.6849Z" stroke="#8789A2" stroke-width="4" mask="url(#path-1-outside-1_28_17)"/>
<path d="M202.43 13.8549C195.005 13.9649 187.415 14.6799 180.65 16.9349C180.54 15.8349 180.595 14.7349 181.035 13.8549C181.42 13.1399 182.025 12.6449 182.96 12.4249C189.12 11.0499 195.775 10.5549 202.265 10.2249L202.43 13.8549ZM204.795 40.1999C204.85 41.4099 204.465 42.5649 203.695 43.3899C203.145 43.9949 202.43 44.3799 201.55 44.5449C195.72 45.6449 187.47 46.0299 182.41 44.4349C180.98 43.9949 179.825 43.1699 179.165 42.0149C178.505 40.9149 178.23 39.5399 178.505 38.1099C178.78 36.6249 179.55 35.1949 180.21 33.8749C181.365 34.2599 182.465 34.8099 183.565 35.3049C183.235 36.1849 182.52 37.1749 182.245 38.1649C181.97 38.9899 182.025 39.6499 182.3 40.0899C182.63 40.6399 183.29 41.0249 184.17 41.2999C189.835 43.1699 199.68 41.4649 204.795 40.1999ZM177.24 34.5349C176.085 37.3949 174.325 42.9499 173.17 46.9649L169.1 47.5699C164.37 35.1399 165.8 19.7949 168.22 6.86992L172.015 6.75992C169.705 17.7049 168.22 30.0799 170.97 41.2449C171.85 38.5499 172.895 35.6899 173.94 32.9949L177.24 34.5349Z" stroke="#8789A2" stroke-width="4" mask="url(#path-1-outside-1_28_17)"/>
<path d="M258.035 27.9349C257.76 31.3449 256.44 34.6999 254.24 37.1749C252.04 39.6499 249.455 41.4099 246.595 42.5099C243.735 43.6649 240.6 44.1599 237.3 44.2149C236.64 44.2149 236.09 43.9399 235.65 43.4999C234.825 42.7299 234.275 41.4649 233.945 40.3649C237.63 40.6399 241.37 40.4199 244.725 39.2649C247.695 38.2199 250.335 36.4599 252.15 33.5999C253.36 31.6749 254.35 29.0349 254.515 26.4499C254.68 23.9199 254.02 21.7749 252.205 20.0149C250.445 18.3649 248.245 17.8149 245.715 17.7049C237.795 17.3749 228.335 19.6849 220.305 22.5999C220.14 21.8299 220.03 20.6199 220.36 19.6849C220.58 19.0799 220.965 18.5849 221.625 18.3649C229.765 15.8899 238.29 13.7999 247.42 14.3499C250.555 14.5149 253.8 15.9449 255.78 18.4199C257.76 20.8949 258.31 24.8549 258.035 27.9349Z" stroke="#8789A2" stroke-width="4" mask="url(#path-1-outside-1_28_17)"/>
<path d="M312.265 32.2249C312.43 33.1049 312.375 33.8199 311.825 34.5349C311.275 35.2499 310.065 36.0199 308.91 36.3499C307.37 27.4399 304.51 19.1349 300.715 11.1599L304.18 9.72992C307.7 16.8249 310.615 24.4149 312.265 32.2249ZM297.14 36.5149C296.315 39.3749 294.39 43.3349 291.915 45.8099C290.54 47.2399 289.11 47.6799 287.735 47.4599C286.195 47.1849 284.71 46.0849 283.39 44.5449C275.525 35.2499 276.405 18.5299 278 8.46492L281.74 8.29992C280.42 19.6849 279.155 33.1049 287.075 42.8399C287.68 43.6099 288.89 43.7199 289.495 42.8399C291.86 39.3749 293.345 36.0199 294.555 32.5549C295.435 32.8849 296.37 33.5999 296.865 34.5349C297.195 35.1399 297.305 35.8549 297.14 36.5149Z" stroke="#8789A2" stroke-width="4" mask="url(#path-1-outside-1_28_17)"/>
<path d="M368.365 13.4699C361.435 13.8549 353.845 19.0249 349.775 24.5249C347.74 27.2749 346.805 30.2449 347.135 33.0499C347.465 35.5799 348.785 37.9449 351.425 39.8149C354.175 41.7949 359.235 43.6649 363.47 43.9399C362.975 45.0949 362.26 45.9749 361.325 46.4699C360.28 47.0749 358.96 47.1849 357.585 46.7999C354.23 45.8099 350.985 44.2699 348.345 42.0149C345.265 39.3749 343.67 36.2949 343.395 33.0499C343.12 29.8049 344.22 26.1199 346.585 22.7649C349.005 19.2999 352.415 16.4399 355.99 14.2949C346.915 15.1749 338.17 16.8799 330.8 19.0799C330.8 18.1449 330.91 17.0999 331.35 16.2199C331.68 15.5049 332.285 14.9549 333.165 14.7349C344.495 12.0949 356.265 10.5549 368.365 10.0049V13.4699Z" stroke="#8789A2" stroke-width="4" mask="url(#path-1-outside-1_28_17)"/>
</svg>
