<svg width="236" height="30" viewBox="0 0 236 30" fill="none" xmlns="http://www.w3.org/2000/svg">
<path d="M19.32 7.6001L12.04 29.0001H9.6L2.36 7.6001V29.0001H0.119995V1.0001H2.36L10.8 25.5601L19.32 1.0001H21.56V29.0001H19.32V7.6001Z" fill="#8F94A8"/>
<path d="M42.8134 21.6401C42.8134 23.8801 42.2001 25.7334 40.9734 27.2001C39.7468 28.6668 37.8934 29.4001 35.4134 29.4001C32.9334 29.4001 31.0534 28.6668 29.7734 27.2001C28.5201 25.7068 27.8934 23.8534 27.8934 21.6401V16.3601C27.8934 13.8268 28.5334 11.8934 29.8134 10.5601C31.1201 9.2001 32.9868 8.5201 35.4134 8.5201C37.7334 8.5201 39.5468 9.22677 40.8534 10.6401C42.1601 12.0268 42.8134 13.9334 42.8134 16.3601V21.6401ZM40.5734 16.3601C40.5734 14.3601 40.1068 12.8934 39.1734 11.9601C38.2668 11.0268 37.0134 10.5601 35.4134 10.5601C33.7601 10.5601 32.4668 11.0268 31.5334 11.9601C30.6001 12.8934 30.1334 14.3601 30.1334 16.3601V22.0401C30.1334 23.6401 30.6001 24.9334 31.5334 25.9201C32.4934 26.9068 33.7868 27.4001 35.4134 27.4001C37.0668 27.4001 38.3334 26.9201 39.2134 25.9601C40.1201 24.9734 40.5734 23.6668 40.5734 22.0401V16.3601Z" fill="#8F94A8"/>
<path d="M46.5884 8.9601H48.8284L48.7084 10.3601C49.9618 9.18676 51.6018 8.6001 53.6284 8.6001C54.3484 8.6001 55.3351 8.7201 56.5884 8.9601L55.9884 11.0001C55.1351 10.7334 54.2418 10.6001 53.3084 10.6001C52.0818 10.6001 51.0284 10.8268 50.1484 11.2801C49.2684 11.7334 48.8284 12.4134 48.8284 13.3201V29.0001H46.5884V8.9601Z" fill="#8F94A8"/>
<path d="M70.4328 27.6001C69.4728 28.2134 68.3795 28.6801 67.1528 29.0001C65.9261 29.3201 64.6995 29.4801 63.4728 29.4801C61.4995 29.4801 59.9261 29.0001 58.7528 28.0401C57.6061 27.0534 57.0328 25.5868 57.0328 23.6401V15.4401C57.0328 13.2801 57.6995 11.6001 59.0328 10.4001C60.3928 9.2001 62.1795 8.6001 64.3928 8.6001C66.6061 8.6001 68.3261 9.2001 69.5528 10.4001C70.8061 11.5734 71.4328 13.2134 71.4328 15.3201V20.5201L59.2728 21.2001V23.6401C59.2728 24.9201 59.6861 25.8801 60.5128 26.5201C61.3395 27.1601 62.4195 27.4801 63.7528 27.4801C65.6195 27.4801 67.5528 26.9468 69.5528 25.8801L70.4328 27.6001ZM69.1928 15.0401C69.1928 13.3868 68.6728 12.2268 67.6328 11.5601C66.5928 10.8668 65.4995 10.5201 64.3528 10.5201C62.8861 10.5201 61.6728 10.9201 60.7128 11.7201C59.7528 12.5201 59.2728 13.7734 59.2728 15.4801V19.0001L69.1928 18.5201V15.0401Z" fill="#8F94A8"/>
<path d="M89.4294 3.0401L86.7494 2.9601V1.0001H91.6694V29.0001H89.4294V3.0401Z" fill="#8F94A8"/>
<path d="M109.776 15.2801C109.776 13.6534 109.296 12.4801 108.336 11.7601C107.403 11.0134 106.19 10.6401 104.696 10.6401C103.79 10.6401 102.87 10.7734 101.936 11.0401C101.003 11.2801 100.176 11.6001 99.4562 12.0001V29.0001H97.2162V8.9601H99.4562L99.2962 10.3201C99.9362 9.7601 100.75 9.34676 101.736 9.0801C102.723 8.78676 103.75 8.6401 104.816 8.6401C106.283 8.6401 107.536 8.8801 108.576 9.3601C109.643 9.8401 110.47 10.5601 111.056 11.5201C111.67 12.4801 111.976 13.6934 111.976 15.1601V29.0001H109.776V15.2801Z" fill="#8F94A8"/>
<path d="M117.776 7.0401C117.776 4.82676 118.336 3.2001 119.456 2.1601C120.576 1.1201 121.963 0.600098 123.616 0.600098C124.123 0.600098 124.616 0.640098 125.096 0.720098L124.736 2.6801C124.256 2.62676 123.91 2.6001 123.696 2.6001C121.243 2.6001 120.016 4.0801 120.016 7.0401V8.9601H124.576L123.616 11.0801H120.016V29.0001H117.776V7.0401Z" fill="#8F94A8"/>
<path d="M142.54 21.6401C142.54 23.8801 141.927 25.7334 140.7 27.2001C139.473 28.6668 137.62 29.4001 135.14 29.4001C132.66 29.4001 130.78 28.6668 129.5 27.2001C128.247 25.7068 127.62 23.8534 127.62 21.6401V16.3601C127.62 13.8268 128.26 11.8934 129.54 10.5601C130.847 9.2001 132.713 8.5201 135.14 8.5201C137.46 8.5201 139.273 9.22677 140.58 10.6401C141.887 12.0268 142.54 13.9334 142.54 16.3601V21.6401ZM140.3 16.3601C140.3 14.3601 139.833 12.8934 138.9 11.9601C137.993 11.0268 136.74 10.5601 135.14 10.5601C133.487 10.5601 132.193 11.0268 131.26 11.9601C130.327 12.8934 129.86 14.3601 129.86 16.3601V22.0401C129.86 23.6401 130.327 24.9334 131.26 25.9201C132.22 26.9068 133.513 27.4001 135.14 27.4001C136.793 27.4001 138.06 26.9201 138.94 25.9601C139.847 24.9734 140.3 23.6668 140.3 22.0401V16.3601Z" fill="#8F94A8"/>
<path fill-rule="evenodd" clip-rule="evenodd" d="M227 5.33984L235.66 14.0001L227 22.6604L219.84 15.5001H171V12.5001H219.84L227 5.33984Z" fill="#8F94A8"/>
</svg>
