<svg width="87" height="33" viewBox="0 0 87 33" fill="none" xmlns="http://www.w3.org/2000/svg">
<mask id="path-1-outside-1_28_20" maskUnits="userSpaceOnUse" x="0.319946" y="0.399902" width="87" height="32" fill="black">
<rect fill="white" x="0.319946" y="0.399902" width="87" height="32"/>
<path d="M28.3599 8.9599C28.3599 9.22657 28.2933 9.4799 28.1599 9.7199C28.0266 9.93323 27.8133 10.0399 27.5199 10.0399C27.0933 10.0399 26.7999 9.94657 26.6399 9.7599C26.5066 9.57323 26.3866 9.30657 26.2799 8.9599C26.1999 8.58657 26.0666 8.13324 25.8799 7.5999C25.7199 7.0399 25.5333 6.49324 25.3199 5.9599C25.1333 5.3999 24.9333 4.97323 24.7199 4.6799C24.6133 4.5199 24.4933 4.37323 24.3599 4.2399C24.2266 4.0799 24.0933 3.93324 23.9599 3.7999C23.7733 3.5599 23.4399 3.3999 22.9599 3.3199C22.4799 3.21323 21.9866 3.1599 21.4799 3.1599C20.9733 3.13323 20.5733 3.1199 20.2799 3.1199C19.9333 3.1199 19.5599 3.1199 19.1599 3.1199C18.7599 3.1199 18.4133 3.21323 18.1199 3.3999C17.8266 3.5599 17.6666 3.8799 17.6399 4.3599C17.6133 5.26657 17.5999 6.1999 17.5999 7.1599C17.5999 8.09323 17.5999 9.02657 17.5999 9.9599C17.5999 12.9999 17.5999 16.0399 17.5999 19.0799C17.6266 22.1199 17.6399 25.1599 17.6399 28.1999C17.6399 28.5199 17.6799 28.8932 17.7599 29.3199C17.8666 29.7466 18.1333 29.9599 18.5599 29.9599C18.9599 29.9599 19.3466 29.9466 19.7199 29.9199C20.1199 29.8932 20.5199 29.8799 20.9199 29.8799C21.1333 29.8799 21.2933 29.9732 21.3999 30.1599C21.5066 30.3199 21.5599 30.4799 21.5599 30.6399C21.5599 31.1199 21.3333 31.3599 20.8799 31.3599C20.5866 31.3599 20.2799 31.3466 19.9599 31.3199C19.6666 31.2932 19.3733 31.2666 19.0799 31.2399C18.5733 31.1866 18.0666 31.1599 17.5599 31.1599C17.0533 31.1599 16.5333 31.1599 15.9999 31.1599C15.1199 31.1599 14.2399 31.1599 13.3599 31.1599C12.4799 31.1599 11.5999 31.1866 10.7199 31.2399C10.3999 31.2666 10.0666 31.2932 9.71995 31.3199C9.39995 31.3466 9.07995 31.3599 8.75995 31.3599C8.51995 31.3599 8.33328 31.2799 8.19995 31.1199C8.06661 30.9599 7.99995 30.7732 7.99995 30.5599C7.99995 30.2666 8.11995 30.0932 8.35995 30.0399C8.59995 29.9599 8.82661 29.9199 9.03995 29.9199C9.33328 29.9199 9.59995 29.9332 9.83995 29.9599C10.1066 29.9599 10.3733 29.9599 10.6399 29.9599C11.3333 29.9599 11.7199 29.7999 11.7999 29.4799C11.9066 29.1599 11.9599 28.7066 11.9599 28.1199V5.7999C11.9599 4.7599 11.9066 4.06657 11.7999 3.7199C11.6933 3.34657 11.4133 3.1599 10.9599 3.1599C10.5066 3.13323 9.75995 3.1199 8.71995 3.1199C8.37328 3.1199 7.89328 3.13323 7.27995 3.1599C6.69328 3.18657 6.25328 3.2799 5.95995 3.4399C5.61328 3.62657 5.33328 3.8799 5.11995 4.1999C4.90661 4.49323 4.73328 4.82657 4.59995 5.1999C4.38661 5.81323 4.17328 6.4399 3.95995 7.0799C3.77328 7.7199 3.57328 8.34657 3.35995 8.9599C3.25328 9.33324 3.11995 9.61324 2.95995 9.7999C2.79995 9.9599 2.50661 10.0399 2.07995 10.0399C1.57328 10.0399 1.31995 9.77323 1.31995 9.2399C1.31995 8.54657 1.38661 7.7599 1.51995 6.8799C1.67995 5.97323 1.77328 5.13324 1.79995 4.3599C1.82661 3.93323 1.82661 3.50657 1.79995 3.0799C1.79995 2.62657 1.83995 2.1999 1.91995 1.7999C1.94661 1.61323 2.03995 1.5199 2.19995 1.5199C2.49328 1.5199 2.78661 1.5599 3.07995 1.6399C3.39995 1.7199 3.70661 1.78657 3.99995 1.8399C4.31995 1.86657 4.63995 1.89323 4.95995 1.9199C5.30661 1.9199 5.65328 1.93323 5.99995 1.9599C7.41328 1.98657 8.87995 2.01323 10.3999 2.0399C11.9466 2.0399 13.4133 2.0399 14.7999 2.0399C16.3733 2.0399 18.0266 2.02657 19.7599 1.9999C21.4933 1.97324 23.1466 1.9599 24.7199 1.9599C24.8799 1.9599 25.0399 1.9599 25.1999 1.9599C25.3866 1.9599 25.5599 1.94657 25.7199 1.9199C26.0133 1.86657 26.2933 1.78657 26.5599 1.6799C26.8533 1.57323 27.1466 1.5199 27.4399 1.5199C27.5733 1.5199 27.6666 1.58657 27.7199 1.7199C27.7999 2.09323 27.8533 2.53323 27.8799 3.0399C27.9066 3.5199 27.9333 3.94657 27.9599 4.3199C28.0399 5.06657 28.1199 5.8399 28.1999 6.6399C28.3066 7.41323 28.3599 8.18657 28.3599 8.9599Z"/>
<path d="M53.2971 16.4799C53.2971 15.4666 53.2171 14.3466 53.0571 13.1199C52.8971 11.8666 52.6305 10.6266 52.2571 9.3999C51.8838 8.17324 51.3771 7.05324 50.7371 6.0399C50.0971 4.9999 49.2971 4.17323 48.3371 3.5599C47.4038 2.9199 46.2838 2.5999 44.9771 2.5999C43.6705 2.5999 42.5371 2.9199 41.5771 3.5599C40.6171 4.17323 39.8038 4.9999 39.1371 6.0399C38.4971 7.05324 37.9771 8.17324 37.5771 9.3999C37.1771 10.6266 36.8838 11.8666 36.6971 13.1199C36.5371 14.3466 36.4571 15.4666 36.4571 16.4799C36.4571 17.4932 36.5505 18.6132 36.7371 19.8399C36.9238 21.0399 37.2171 22.2532 37.6171 23.4799C38.0171 24.6799 38.5371 25.7866 39.1771 26.7999C39.8438 27.7866 40.6571 28.5866 41.6171 29.1999C42.5771 29.7866 43.6971 30.0799 44.9771 30.0799C46.3105 30.0799 47.4438 29.7866 48.3771 29.1999C49.3371 28.5866 50.1238 27.7866 50.7371 26.7999C51.3771 25.8132 51.8838 24.7199 52.2571 23.5199C52.6305 22.3199 52.8971 21.1066 53.0571 19.8799C53.2171 18.6532 53.2971 17.5199 53.2971 16.4799ZM59.0971 16.3999C59.0971 19.4132 58.5638 22.0399 57.4971 24.2799C56.4305 26.5199 54.8438 28.2532 52.7371 29.4799C50.6571 30.7066 48.0705 31.3199 44.9771 31.3199C41.9371 31.3199 39.3638 30.7066 37.2571 29.4799C35.1505 28.2266 33.5505 26.4932 32.4571 24.2799C31.3638 22.0399 30.8171 19.4399 30.8171 16.4799C30.8171 14.3999 31.1371 12.4532 31.7771 10.6399C32.4438 8.7999 33.3905 7.18657 34.6171 5.7999C35.8705 4.41323 37.3638 3.33323 39.0971 2.5599C40.8571 1.78657 42.8171 1.3999 44.9771 1.3999C48.0171 1.3999 50.5905 2.0399 52.6971 3.3199C54.8038 4.57323 56.3905 6.33324 57.4571 8.5999C58.5505 10.8399 59.0971 13.4399 59.0971 16.3999Z"/>
<path d="M80.0296 9.0399C80.0296 7.9199 79.843 6.89323 79.4696 5.9599C79.0963 5.02657 78.5096 4.29324 77.7096 3.7599C76.9363 3.1999 75.9496 2.9199 74.7496 2.9199C74.483 2.9199 74.2163 2.9199 73.9496 2.9199C73.683 2.89324 73.4163 2.8799 73.1496 2.8799C72.483 2.8799 72.0563 2.94657 71.8696 3.0799C71.683 3.18657 71.5896 3.61324 71.5896 4.3599C71.5896 6.17323 71.5896 7.9999 71.5896 9.8399C71.5896 11.6799 71.603 13.5066 71.6296 15.3199C72.0296 15.6666 72.4963 15.8932 73.0296 15.9999C73.563 16.0799 74.083 16.1199 74.5896 16.1199C75.9763 16.1199 77.0563 15.7866 77.8296 15.1199C78.6296 14.4266 79.1896 13.5332 79.5096 12.4399C79.8563 11.3466 80.0296 10.2132 80.0296 9.0399ZM85.7896 8.9199C85.7896 10.6799 85.483 12.1199 84.8696 13.2399C84.2563 14.3332 83.4163 15.1866 82.3496 15.7999C81.3096 16.4132 80.1096 16.8399 78.7496 17.0799C77.4163 17.2932 76.003 17.3999 74.5096 17.3999C74.0296 17.3999 73.5496 17.3732 73.0696 17.3199C72.5896 17.2666 72.1096 17.2132 71.6296 17.1599C71.6296 19.1066 71.6296 21.0532 71.6296 22.9999C71.6296 24.9199 71.6296 26.8532 71.6296 28.7999C71.6296 29.0132 71.6696 29.2399 71.7496 29.4799C71.8563 29.7199 72.043 29.8399 72.3096 29.8399C72.6563 29.8399 72.9896 29.8266 73.3096 29.7999C73.6563 29.7732 74.003 29.7599 74.3496 29.7599C74.5363 29.7599 74.683 29.8666 74.7896 30.0799C74.923 30.2932 74.9896 30.4666 74.9896 30.5999C74.9896 30.7866 74.923 30.9332 74.7896 31.0399C74.6563 31.1466 74.5096 31.1999 74.3496 31.1999C74.003 31.1999 73.6563 31.1866 73.3096 31.1599C72.963 31.1332 72.603 31.1066 72.2296 31.0799C71.6963 31.0266 71.1496 30.9999 70.5896 30.9999C70.0296 30.9999 69.483 30.9999 68.9496 30.9999C67.6696 30.9999 66.403 31.0399 65.1496 31.1199C64.8563 31.1466 64.563 31.1599 64.2696 31.1599C64.003 31.1866 63.723 31.1999 63.4296 31.1999C63.163 31.1999 62.9896 31.1199 62.9096 30.9599C62.8296 30.7732 62.7896 30.5866 62.7896 30.3999C62.7896 30.1866 62.8696 30.0399 63.0296 29.9599C63.1896 29.8532 63.363 29.7999 63.5496 29.7999C63.7896 29.7999 64.0296 29.8132 64.2696 29.8399C64.5096 29.8666 64.763 29.8799 65.0296 29.8799C65.083 29.8799 65.1496 29.8799 65.2296 29.8799C65.3096 29.8799 65.3763 29.8799 65.4296 29.8799C65.803 29.8532 66.0163 29.6399 66.0696 29.2399C66.1496 28.8399 66.1896 28.5066 66.1896 28.2399V4.6799C66.1896 4.46657 66.163 4.1599 66.1096 3.7599C66.0563 3.33323 65.8696 3.10657 65.5496 3.0799C65.4696 3.0799 65.3896 3.0799 65.3096 3.0799C65.2563 3.0799 65.203 3.0799 65.1496 3.0799C64.883 3.0799 64.6163 3.09324 64.3496 3.1199C64.083 3.14657 63.8163 3.1599 63.5496 3.1599C63.363 3.1599 63.1763 3.0799 62.9896 2.9199C62.8296 2.7599 62.7496 2.58657 62.7496 2.3999C62.7496 2.21323 62.8296 2.0399 62.9896 1.8799C63.1763 1.7199 63.363 1.6399 63.5496 1.6399C63.843 1.6399 64.1363 1.65323 64.4296 1.6799C64.7496 1.70657 65.0563 1.73323 65.3496 1.7599C65.963 1.78657 66.563 1.81324 67.1496 1.8399C67.763 1.8399 68.363 1.8399 68.9496 1.8399C70.1763 1.8399 71.3896 1.81324 72.5896 1.7599C73.8163 1.6799 75.043 1.6399 76.2696 1.6399C77.443 1.6399 78.5896 1.77323 79.7096 2.0399C80.8563 2.2799 81.883 2.6799 82.7896 3.2399C83.6963 3.7999 84.4163 4.54657 84.9496 5.4799C85.5096 6.41323 85.7896 7.5599 85.7896 8.9199Z"/>
</mask>
<path d="M28.3599 8.9599C28.3599 9.22657 28.2933 9.4799 28.1599 9.7199C28.0266 9.93323 27.8133 10.0399 27.5199 10.0399C27.0933 10.0399 26.7999 9.94657 26.6399 9.7599C26.5066 9.57323 26.3866 9.30657 26.2799 8.9599C26.1999 8.58657 26.0666 8.13324 25.8799 7.5999C25.7199 7.0399 25.5333 6.49324 25.3199 5.9599C25.1333 5.3999 24.9333 4.97323 24.7199 4.6799C24.6133 4.5199 24.4933 4.37323 24.3599 4.2399C24.2266 4.0799 24.0933 3.93324 23.9599 3.7999C23.7733 3.5599 23.4399 3.3999 22.9599 3.3199C22.4799 3.21323 21.9866 3.1599 21.4799 3.1599C20.9733 3.13323 20.5733 3.1199 20.2799 3.1199C19.9333 3.1199 19.5599 3.1199 19.1599 3.1199C18.7599 3.1199 18.4133 3.21323 18.1199 3.3999C17.8266 3.5599 17.6666 3.8799 17.6399 4.3599C17.6133 5.26657 17.5999 6.1999 17.5999 7.1599C17.5999 8.09323 17.5999 9.02657 17.5999 9.9599C17.5999 12.9999 17.5999 16.0399 17.5999 19.0799C17.6266 22.1199 17.6399 25.1599 17.6399 28.1999C17.6399 28.5199 17.6799 28.8932 17.7599 29.3199C17.8666 29.7466 18.1333 29.9599 18.5599 29.9599C18.9599 29.9599 19.3466 29.9466 19.7199 29.9199C20.1199 29.8932 20.5199 29.8799 20.9199 29.8799C21.1333 29.8799 21.2933 29.9732 21.3999 30.1599C21.5066 30.3199 21.5599 30.4799 21.5599 30.6399C21.5599 31.1199 21.3333 31.3599 20.8799 31.3599C20.5866 31.3599 20.2799 31.3466 19.9599 31.3199C19.6666 31.2932 19.3733 31.2666 19.0799 31.2399C18.5733 31.1866 18.0666 31.1599 17.5599 31.1599C17.0533 31.1599 16.5333 31.1599 15.9999 31.1599C15.1199 31.1599 14.2399 31.1599 13.3599 31.1599C12.4799 31.1599 11.5999 31.1866 10.7199 31.2399C10.3999 31.2666 10.0666 31.2932 9.71995 31.3199C9.39995 31.3466 9.07995 31.3599 8.75995 31.3599C8.51995 31.3599 8.33328 31.2799 8.19995 31.1199C8.06661 30.9599 7.99995 30.7732 7.99995 30.5599C7.99995 30.2666 8.11995 30.0932 8.35995 30.0399C8.59995 29.9599 8.82661 29.9199 9.03995 29.9199C9.33328 29.9199 9.59995 29.9332 9.83995 29.9599C10.1066 29.9599 10.3733 29.9599 10.6399 29.9599C11.3333 29.9599 11.7199 29.7999 11.7999 29.4799C11.9066 29.1599 11.9599 28.7066 11.9599 28.1199V5.7999C11.9599 4.7599 11.9066 4.06657 11.7999 3.7199C11.6933 3.34657 11.4133 3.1599 10.9599 3.1599C10.5066 3.13323 9.75995 3.1199 8.71995 3.1199C8.37328 3.1199 7.89328 3.13323 7.27995 3.1599C6.69328 3.18657 6.25328 3.2799 5.95995 3.4399C5.61328 3.62657 5.33328 3.8799 5.11995 4.1999C4.90661 4.49323 4.73328 4.82657 4.59995 5.1999C4.38661 5.81323 4.17328 6.4399 3.95995 7.0799C3.77328 7.7199 3.57328 8.34657 3.35995 8.9599C3.25328 9.33324 3.11995 9.61324 2.95995 9.7999C2.79995 9.9599 2.50661 10.0399 2.07995 10.0399C1.57328 10.0399 1.31995 9.77323 1.31995 9.2399C1.31995 8.54657 1.38661 7.7599 1.51995 6.8799C1.67995 5.97323 1.77328 5.13324 1.79995 4.3599C1.82661 3.93323 1.82661 3.50657 1.79995 3.0799C1.79995 2.62657 1.83995 2.1999 1.91995 1.7999C1.94661 1.61323 2.03995 1.5199 2.19995 1.5199C2.49328 1.5199 2.78661 1.5599 3.07995 1.6399C3.39995 1.7199 3.70661 1.78657 3.99995 1.8399C4.31995 1.86657 4.63995 1.89323 4.95995 1.9199C5.30661 1.9199 5.65328 1.93323 5.99995 1.9599C7.41328 1.98657 8.87995 2.01323 10.3999 2.0399C11.9466 2.0399 13.4133 2.0399 14.7999 2.0399C16.3733 2.0399 18.0266 2.02657 19.7599 1.9999C21.4933 1.97324 23.1466 1.9599 24.7199 1.9599C24.8799 1.9599 25.0399 1.9599 25.1999 1.9599C25.3866 1.9599 25.5599 1.94657 25.7199 1.9199C26.0133 1.86657 26.2933 1.78657 26.5599 1.6799C26.8533 1.57323 27.1466 1.5199 27.4399 1.5199C27.5733 1.5199 27.6666 1.58657 27.7199 1.7199C27.7999 2.09323 27.8533 2.53323 27.8799 3.0399C27.9066 3.5199 27.9333 3.94657 27.9599 4.3199C28.0399 5.06657 28.1199 5.8399 28.1999 6.6399C28.3066 7.41323 28.3599 8.18657 28.3599 8.9599Z" fill="white"/>
<path d="M53.2971 16.4799C53.2971 15.4666 53.2171 14.3466 53.0571 13.1199C52.8971 11.8666 52.6305 10.6266 52.2571 9.3999C51.8838 8.17324 51.3771 7.05324 50.7371 6.0399C50.0971 4.9999 49.2971 4.17323 48.3371 3.5599C47.4038 2.9199 46.2838 2.5999 44.9771 2.5999C43.6705 2.5999 42.5371 2.9199 41.5771 3.5599C40.6171 4.17323 39.8038 4.9999 39.1371 6.0399C38.4971 7.05324 37.9771 8.17324 37.5771 9.3999C37.1771 10.6266 36.8838 11.8666 36.6971 13.1199C36.5371 14.3466 36.4571 15.4666 36.4571 16.4799C36.4571 17.4932 36.5505 18.6132 36.7371 19.8399C36.9238 21.0399 37.2171 22.2532 37.6171 23.4799C38.0171 24.6799 38.5371 25.7866 39.1771 26.7999C39.8438 27.7866 40.6571 28.5866 41.6171 29.1999C42.5771 29.7866 43.6971 30.0799 44.9771 30.0799C46.3105 30.0799 47.4438 29.7866 48.3771 29.1999C49.3371 28.5866 50.1238 27.7866 50.7371 26.7999C51.3771 25.8132 51.8838 24.7199 52.2571 23.5199C52.6305 22.3199 52.8971 21.1066 53.0571 19.8799C53.2171 18.6532 53.2971 17.5199 53.2971 16.4799ZM59.0971 16.3999C59.0971 19.4132 58.5638 22.0399 57.4971 24.2799C56.4305 26.5199 54.8438 28.2532 52.7371 29.4799C50.6571 30.7066 48.0705 31.3199 44.9771 31.3199C41.9371 31.3199 39.3638 30.7066 37.2571 29.4799C35.1505 28.2266 33.5505 26.4932 32.4571 24.2799C31.3638 22.0399 30.8171 19.4399 30.8171 16.4799C30.8171 14.3999 31.1371 12.4532 31.7771 10.6399C32.4438 8.7999 33.3905 7.18657 34.6171 5.7999C35.8705 4.41323 37.3638 3.33323 39.0971 2.5599C40.8571 1.78657 42.8171 1.3999 44.9771 1.3999C48.0171 1.3999 50.5905 2.0399 52.6971 3.3199C54.8038 4.57323 56.3905 6.33324 57.4571 8.5999C58.5505 10.8399 59.0971 13.4399 59.0971 16.3999Z" fill="white"/>
<path d="M80.0296 9.0399C80.0296 7.9199 79.843 6.89323 79.4696 5.9599C79.0963 5.02657 78.5096 4.29324 77.7096 3.7599C76.9363 3.1999 75.9496 2.9199 74.7496 2.9199C74.483 2.9199 74.2163 2.9199 73.9496 2.9199C73.683 2.89324 73.4163 2.8799 73.1496 2.8799C72.483 2.8799 72.0563 2.94657 71.8696 3.0799C71.683 3.18657 71.5896 3.61324 71.5896 4.3599C71.5896 6.17323 71.5896 7.9999 71.5896 9.8399C71.5896 11.6799 71.603 13.5066 71.6296 15.3199C72.0296 15.6666 72.4963 15.8932 73.0296 15.9999C73.563 16.0799 74.083 16.1199 74.5896 16.1199C75.9763 16.1199 77.0563 15.7866 77.8296 15.1199C78.6296 14.4266 79.1896 13.5332 79.5096 12.4399C79.8563 11.3466 80.0296 10.2132 80.0296 9.0399ZM85.7896 8.9199C85.7896 10.6799 85.483 12.1199 84.8696 13.2399C84.2563 14.3332 83.4163 15.1866 82.3496 15.7999C81.3096 16.4132 80.1096 16.8399 78.7496 17.0799C77.4163 17.2932 76.003 17.3999 74.5096 17.3999C74.0296 17.3999 73.5496 17.3732 73.0696 17.3199C72.5896 17.2666 72.1096 17.2132 71.6296 17.1599C71.6296 19.1066 71.6296 21.0532 71.6296 22.9999C71.6296 24.9199 71.6296 26.8532 71.6296 28.7999C71.6296 29.0132 71.6696 29.2399 71.7496 29.4799C71.8563 29.7199 72.043 29.8399 72.3096 29.8399C72.6563 29.8399 72.9896 29.8266 73.3096 29.7999C73.6563 29.7732 74.003 29.7599 74.3496 29.7599C74.5363 29.7599 74.683 29.8666 74.7896 30.0799C74.923 30.2932 74.9896 30.4666 74.9896 30.5999C74.9896 30.7866 74.923 30.9332 74.7896 31.0399C74.6563 31.1466 74.5096 31.1999 74.3496 31.1999C74.003 31.1999 73.6563 31.1866 73.3096 31.1599C72.963 31.1332 72.603 31.1066 72.2296 31.0799C71.6963 31.0266 71.1496 30.9999 70.5896 30.9999C70.0296 30.9999 69.483 30.9999 68.9496 30.9999C67.6696 30.9999 66.403 31.0399 65.1496 31.1199C64.8563 31.1466 64.563 31.1599 64.2696 31.1599C64.003 31.1866 63.723 31.1999 63.4296 31.1999C63.163 31.1999 62.9896 31.1199 62.9096 30.9599C62.8296 30.7732 62.7896 30.5866 62.7896 30.3999C62.7896 30.1866 62.8696 30.0399 63.0296 29.9599C63.1896 29.8532 63.363 29.7999 63.5496 29.7999C63.7896 29.7999 64.0296 29.8132 64.2696 29.8399C64.5096 29.8666 64.763 29.8799 65.0296 29.8799C65.083 29.8799 65.1496 29.8799 65.2296 29.8799C65.3096 29.8799 65.3763 29.8799 65.4296 29.8799C65.803 29.8532 66.0163 29.6399 66.0696 29.2399C66.1496 28.8399 66.1896 28.5066 66.1896 28.2399V4.6799C66.1896 4.46657 66.163 4.1599 66.1096 3.7599C66.0563 3.33323 65.8696 3.10657 65.5496 3.0799C65.4696 3.0799 65.3896 3.0799 65.3096 3.0799C65.2563 3.0799 65.203 3.0799 65.1496 3.0799C64.883 3.0799 64.6163 3.09324 64.3496 3.1199C64.083 3.14657 63.8163 3.1599 63.5496 3.1599C63.363 3.1599 63.1763 3.0799 62.9896 2.9199C62.8296 2.7599 62.7496 2.58657 62.7496 2.3999C62.7496 2.21323 62.8296 2.0399 62.9896 1.8799C63.1763 1.7199 63.363 1.6399 63.5496 1.6399C63.843 1.6399 64.1363 1.65323 64.4296 1.6799C64.7496 1.70657 65.0563 1.73323 65.3496 1.7599C65.963 1.78657 66.563 1.81324 67.1496 1.8399C67.763 1.8399 68.363 1.8399 68.9496 1.8399C70.1763 1.8399 71.3896 1.81324 72.5896 1.7599C73.8163 1.6799 75.043 1.6399 76.2696 1.6399C77.443 1.6399 78.5896 1.77323 79.7096 2.0399C80.8563 2.2799 81.883 2.6799 82.7896 3.2399C83.6963 3.7999 84.4163 4.54657 84.9496 5.4799C85.5096 6.41323 85.7896 7.5599 85.7896 8.9199Z" fill="white"/>
<path d="M28.3599 8.9599C28.3599 9.22657 28.2933 9.4799 28.1599 9.7199C28.0266 9.93323 27.8133 10.0399 27.5199 10.0399C27.0933 10.0399 26.7999 9.94657 26.6399 9.7599C26.5066 9.57323 26.3866 9.30657 26.2799 8.9599C26.1999 8.58657 26.0666 8.13324 25.8799 7.5999C25.7199 7.0399 25.5333 6.49324 25.3199 5.9599C25.1333 5.3999 24.9333 4.97323 24.7199 4.6799C24.6133 4.5199 24.4933 4.37323 24.3599 4.2399C24.2266 4.0799 24.0933 3.93324 23.9599 3.7999C23.7733 3.5599 23.4399 3.3999 22.9599 3.3199C22.4799 3.21323 21.9866 3.1599 21.4799 3.1599C20.9733 3.13323 20.5733 3.1199 20.2799 3.1199C19.9333 3.1199 19.5599 3.1199 19.1599 3.1199C18.7599 3.1199 18.4133 3.21323 18.1199 3.3999C17.8266 3.5599 17.6666 3.8799 17.6399 4.3599C17.6133 5.26657 17.5999 6.1999 17.5999 7.1599C17.5999 8.09323 17.5999 9.02657 17.5999 9.9599C17.5999 12.9999 17.5999 16.0399 17.5999 19.0799C17.6266 22.1199 17.6399 25.1599 17.6399 28.1999C17.6399 28.5199 17.6799 28.8932 17.7599 29.3199C17.8666 29.7466 18.1333 29.9599 18.5599 29.9599C18.9599 29.9599 19.3466 29.9466 19.7199 29.9199C20.1199 29.8932 20.5199 29.8799 20.9199 29.8799C21.1333 29.8799 21.2933 29.9732 21.3999 30.1599C21.5066 30.3199 21.5599 30.4799 21.5599 30.6399C21.5599 31.1199 21.3333 31.3599 20.8799 31.3599C20.5866 31.3599 20.2799 31.3466 19.9599 31.3199C19.6666 31.2932 19.3733 31.2666 19.0799 31.2399C18.5733 31.1866 18.0666 31.1599 17.5599 31.1599C17.0533 31.1599 16.5333 31.1599 15.9999 31.1599C15.1199 31.1599 14.2399 31.1599 13.3599 31.1599C12.4799 31.1599 11.5999 31.1866 10.7199 31.2399C10.3999 31.2666 10.0666 31.2932 9.71995 31.3199C9.39995 31.3466 9.07995 31.3599 8.75995 31.3599C8.51995 31.3599 8.33328 31.2799 8.19995 31.1199C8.06661 30.9599 7.99995 30.7732 7.99995 30.5599C7.99995 30.2666 8.11995 30.0932 8.35995 30.0399C8.59995 29.9599 8.82661 29.9199 9.03995 29.9199C9.33328 29.9199 9.59995 29.9332 9.83995 29.9599C10.1066 29.9599 10.3733 29.9599 10.6399 29.9599C11.3333 29.9599 11.7199 29.7999 11.7999 29.4799C11.9066 29.1599 11.9599 28.7066 11.9599 28.1199V5.7999C11.9599 4.7599 11.9066 4.06657 11.7999 3.7199C11.6933 3.34657 11.4133 3.1599 10.9599 3.1599C10.5066 3.13323 9.75995 3.1199 8.71995 3.1199C8.37328 3.1199 7.89328 3.13323 7.27995 3.1599C6.69328 3.18657 6.25328 3.2799 5.95995 3.4399C5.61328 3.62657 5.33328 3.8799 5.11995 4.1999C4.90661 4.49323 4.73328 4.82657 4.59995 5.1999C4.38661 5.81323 4.17328 6.4399 3.95995 7.0799C3.77328 7.7199 3.57328 8.34657 3.35995 8.9599C3.25328 9.33324 3.11995 9.61324 2.95995 9.7999C2.79995 9.9599 2.50661 10.0399 2.07995 10.0399C1.57328 10.0399 1.31995 9.77323 1.31995 9.2399C1.31995 8.54657 1.38661 7.7599 1.51995 6.8799C1.67995 5.97323 1.77328 5.13324 1.79995 4.3599C1.82661 3.93323 1.82661 3.50657 1.79995 3.0799C1.79995 2.62657 1.83995 2.1999 1.91995 1.7999C1.94661 1.61323 2.03995 1.5199 2.19995 1.5199C2.49328 1.5199 2.78661 1.5599 3.07995 1.6399C3.39995 1.7199 3.70661 1.78657 3.99995 1.8399C4.31995 1.86657 4.63995 1.89323 4.95995 1.9199C5.30661 1.9199 5.65328 1.93323 5.99995 1.9599C7.41328 1.98657 8.87995 2.01323 10.3999 2.0399C11.9466 2.0399 13.4133 2.0399 14.7999 2.0399C16.3733 2.0399 18.0266 2.02657 19.7599 1.9999C21.4933 1.97324 23.1466 1.9599 24.7199 1.9599C24.8799 1.9599 25.0399 1.9599 25.1999 1.9599C25.3866 1.9599 25.5599 1.94657 25.7199 1.9199C26.0133 1.86657 26.2933 1.78657 26.5599 1.6799C26.8533 1.57323 27.1466 1.5199 27.4399 1.5199C27.5733 1.5199 27.6666 1.58657 27.7199 1.7199C27.7999 2.09323 27.8533 2.53323 27.8799 3.0399C27.9066 3.5199 27.9333 3.94657 27.9599 4.3199C28.0399 5.06657 28.1199 5.8399 28.1999 6.6399C28.3066 7.41323 28.3599 8.18657 28.3599 8.9599Z" stroke="#8CA2B1" stroke-width="2" mask="url(#path-1-outside-1_28_20)"/>
<path d="M53.2971 16.4799C53.2971 15.4666 53.2171 14.3466 53.0571 13.1199C52.8971 11.8666 52.6305 10.6266 52.2571 9.3999C51.8838 8.17324 51.3771 7.05324 50.7371 6.0399C50.0971 4.9999 49.2971 4.17323 48.3371 3.5599C47.4038 2.9199 46.2838 2.5999 44.9771 2.5999C43.6705 2.5999 42.5371 2.9199 41.5771 3.5599C40.6171 4.17323 39.8038 4.9999 39.1371 6.0399C38.4971 7.05324 37.9771 8.17324 37.5771 9.3999C37.1771 10.6266 36.8838 11.8666 36.6971 13.1199C36.5371 14.3466 36.4571 15.4666 36.4571 16.4799C36.4571 17.4932 36.5505 18.6132 36.7371 19.8399C36.9238 21.0399 37.2171 22.2532 37.6171 23.4799C38.0171 24.6799 38.5371 25.7866 39.1771 26.7999C39.8438 27.7866 40.6571 28.5866 41.6171 29.1999C42.5771 29.7866 43.6971 30.0799 44.9771 30.0799C46.3105 30.0799 47.4438 29.7866 48.3771 29.1999C49.3371 28.5866 50.1238 27.7866 50.7371 26.7999C51.3771 25.8132 51.8838 24.7199 52.2571 23.5199C52.6305 22.3199 52.8971 21.1066 53.0571 19.8799C53.2171 18.6532 53.2971 17.5199 53.2971 16.4799ZM59.0971 16.3999C59.0971 19.4132 58.5638 22.0399 57.4971 24.2799C56.4305 26.5199 54.8438 28.2532 52.7371 29.4799C50.6571 30.7066 48.0705 31.3199 44.9771 31.3199C41.9371 31.3199 39.3638 30.7066 37.2571 29.4799C35.1505 28.2266 33.5505 26.4932 32.4571 24.2799C31.3638 22.0399 30.8171 19.4399 30.8171 16.4799C30.8171 14.3999 31.1371 12.4532 31.7771 10.6399C32.4438 8.7999 33.3905 7.18657 34.6171 5.7999C35.8705 4.41323 37.3638 3.33323 39.0971 2.5599C40.8571 1.78657 42.8171 1.3999 44.9771 1.3999C48.0171 1.3999 50.5905 2.0399 52.6971 3.3199C54.8038 4.57323 56.3905 6.33324 57.4571 8.5999C58.5505 10.8399 59.0971 13.4399 59.0971 16.3999Z" stroke="#8CA2B1" stroke-width="2" mask="url(#path-1-outside-1_28_20)"/>
<path d="M80.0296 9.0399C80.0296 7.9199 79.843 6.89323 79.4696 5.9599C79.0963 5.02657 78.5096 4.29324 77.7096 3.7599C76.9363 3.1999 75.9496 2.9199 74.7496 2.9199C74.483 2.9199 74.2163 2.9199 73.9496 2.9199C73.683 2.89324 73.4163 2.8799 73.1496 2.8799C72.483 2.8799 72.0563 2.94657 71.8696 3.0799C71.683 3.18657 71.5896 3.61324 71.5896 4.3599C71.5896 6.17323 71.5896 7.9999 71.5896 9.8399C71.5896 11.6799 71.603 13.5066 71.6296 15.3199C72.0296 15.6666 72.4963 15.8932 73.0296 15.9999C73.563 16.0799 74.083 16.1199 74.5896 16.1199C75.9763 16.1199 77.0563 15.7866 77.8296 15.1199C78.6296 14.4266 79.1896 13.5332 79.5096 12.4399C79.8563 11.3466 80.0296 10.2132 80.0296 9.0399ZM85.7896 8.9199C85.7896 10.6799 85.483 12.1199 84.8696 13.2399C84.2563 14.3332 83.4163 15.1866 82.3496 15.7999C81.3096 16.4132 80.1096 16.8399 78.7496 17.0799C77.4163 17.2932 76.003 17.3999 74.5096 17.3999C74.0296 17.3999 73.5496 17.3732 73.0696 17.3199C72.5896 17.2666 72.1096 17.2132 71.6296 17.1599C71.6296 19.1066 71.6296 21.0532 71.6296 22.9999C71.6296 24.9199 71.6296 26.8532 71.6296 28.7999C71.6296 29.0132 71.6696 29.2399 71.7496 29.4799C71.8563 29.7199 72.043 29.8399 72.3096 29.8399C72.6563 29.8399 72.9896 29.8266 73.3096 29.7999C73.6563 29.7732 74.003 29.7599 74.3496 29.7599C74.5363 29.7599 74.683 29.8666 74.7896 30.0799C74.923 30.2932 74.9896 30.4666 74.9896 30.5999C74.9896 30.7866 74.923 30.9332 74.7896 31.0399C74.6563 31.1466 74.5096 31.1999 74.3496 31.1999C74.003 31.1999 73.6563 31.1866 73.3096 31.1599C72.963 31.1332 72.603 31.1066 72.2296 31.0799C71.6963 31.0266 71.1496 30.9999 70.5896 30.9999C70.0296 30.9999 69.483 30.9999 68.9496 30.9999C67.6696 30.9999 66.403 31.0399 65.1496 31.1199C64.8563 31.1466 64.563 31.1599 64.2696 31.1599C64.003 31.1866 63.723 31.1999 63.4296 31.1999C63.163 31.1999 62.9896 31.1199 62.9096 30.9599C62.8296 30.7732 62.7896 30.5866 62.7896 30.3999C62.7896 30.1866 62.8696 30.0399 63.0296 29.9599C63.1896 29.8532 63.363 29.7999 63.5496 29.7999C63.7896 29.7999 64.0296 29.8132 64.2696 29.8399C64.5096 29.8666 64.763 29.8799 65.0296 29.8799C65.083 29.8799 65.1496 29.8799 65.2296 29.8799C65.3096 29.8799 65.3763 29.8799 65.4296 29.8799C65.803 29.8532 66.0163 29.6399 66.0696 29.2399C66.1496 28.8399 66.1896 28.5066 66.1896 28.2399V4.6799C66.1896 4.46657 66.163 4.1599 66.1096 3.7599C66.0563 3.33323 65.8696 3.10657 65.5496 3.0799C65.4696 3.0799 65.3896 3.0799 65.3096 3.0799C65.2563 3.0799 65.203 3.0799 65.1496 3.0799C64.883 3.0799 64.6163 3.09324 64.3496 3.1199C64.083 3.14657 63.8163 3.1599 63.5496 3.1599C63.363 3.1599 63.1763 3.0799 62.9896 2.9199C62.8296 2.7599 62.7496 2.58657 62.7496 2.3999C62.7496 2.21323 62.8296 2.0399 62.9896 1.8799C63.1763 1.7199 63.363 1.6399 63.5496 1.6399C63.843 1.6399 64.1363 1.65323 64.4296 1.6799C64.7496 1.70657 65.0563 1.73323 65.3496 1.7599C65.963 1.78657 66.563 1.81324 67.1496 1.8399C67.763 1.8399 68.363 1.8399 68.9496 1.8399C70.1763 1.8399 71.3896 1.81324 72.5896 1.7599C73.8163 1.6799 75.043 1.6399 76.2696 1.6399C77.443 1.6399 78.5896 1.77323 79.7096 2.0399C80.8563 2.2799 81.883 2.6799 82.7896 3.2399C83.6963 3.7999 84.4163 4.54657 84.9496 5.4799C85.5096 6.41323 85.7896 7.5599 85.7896 8.9199Z" stroke="#8CA2B1" stroke-width="2" mask="url(#path-1-outside-1_28_20)"/>
</svg>
